<?xml version="1.0" encoding="utf-8"?>
<!-- Generator: Adobe Illustrator 19.1.0, SVG Export Plug-In . SVG Version: 6.00 Build 0)  -->
<svg version="1.1" id="Layer_1" xmlns="http://www.w3.org/2000/svg" xmlns:xlink="http://www.w3.org/1999/xlink" x="0px" y="0px"
	 viewBox="0 0 240.8 40.1" style="enable-background:new 0 0 240.8 40.1;" xml:space="preserve">
<style type="text/css">
	.st0{fill:#FFFFFF;}
</style>
<g>
	<path class="st0" d="M134,28.6c-0.8,0-1.4,0.5-1.7,1.1c-4.9-0.6-8-3-8-3c-0.1-0.1-0.4-0.3-0.7-0.5c0.5-0.1,0.8-0.2,0.8-0.2
		c-2.5-0.1-4.3-2.7-4.3-2.7s-1.9,2.6-4.3,2.7c0,0,0.7,0.1,1.6,0.4c-0.2,0.1-0.3,0.2-0.3,0.3c0,0-3.1,2.4-8,3
		c-0.3-0.7-0.9-1.1-1.7-1.1c-1,0-1.8,0.8-1.8,1.8c0,1,0.8,1.8,1.8,1.8c1,0,1.7-0.7,1.8-1.7c4.1-0.5,7.5-2.9,8.7-4
		c1,0.4,2,1.2,2.3,2.5c0.4-1.7,1.9-2.5,3-2.8c0.9,0.8,4.5,3.7,9.1,4.3c0.1,0.9,0.9,1.7,1.8,1.7c1,0,1.8-0.8,1.8-1.8
		C135.9,29.4,135,28.6,134,28.6z M107.3,31.4c-0.5,0-1-0.4-1-1c0-0.5,0.4-1,1-1c0.4,0,0.8,0.2,0.9,0.6l0.1,0.4
		C108.2,31,107.8,31.4,107.3,31.4z M134,31.4c-0.5,0-0.9-0.4-1-0.9l0.1-0.4c0.1-0.4,0.5-0.6,0.9-0.6c0.5,0,1,0.4,1,1
		C135,31,134.6,31.4,134,31.4z"/>
	<path class="st0" d="M126.8,32.1c-0.3,0-0.6,0.1-0.8,0.2l-3.9-3.7c0.3,0.3,2.3,3.2,3.3,4.3c-0.2,0.3-0.3,0.6-0.3,0.9
		c0,1,0.8,1.7,1.7,1.7s1.7-0.8,1.7-1.7C128.5,32.9,127.7,32.1,126.8,32.1z M126.8,34.7c-0.5,0-0.9-0.4-0.9-0.9
		c0-0.5,0.4-0.9,0.9-0.9s0.9,0.4,0.9,0.9C127.6,34.3,127.2,34.7,126.8,34.7z"/>
	<path class="st0" d="M114.8,32.3c-0.2-0.1-0.5-0.2-0.8-0.2c-1,0-1.7,0.8-1.7,1.7c0,1,0.8,1.7,1.7,1.7s1.7-0.8,1.7-1.7
		c0-0.3-0.1-0.7-0.3-0.9c1-1.1,3-4,3.3-4.3L114.8,32.3z M114,34.7c-0.5,0-0.9-0.4-0.9-0.9c0-0.5,0.4-0.9,0.9-0.9s0.9,0.4,0.9,0.9
		C114.8,34.3,114.4,34.7,114,34.7z"/>
	<path class="st0" d="M120.8,33.4v-3.2c0-0.2-0.2-0.4-0.4-0.4c-0.2,0-0.4,0.2-0.4,0.4v3.2c-0.7,0.2-1.2,0.9-1.2,1.6
		c0,0.8,0.6,1.5,1.3,1.7v2.9c0,0.2,0.2,0.4,0.4,0.4c0.2,0,0.4-0.2,0.4-0.4v-2.9c0.7-0.2,1.3-0.9,1.3-1.7
		C122.2,34.3,121.6,33.6,120.8,33.4z M120.5,36c-0.5,0-0.9-0.4-0.9-0.9c0-0.5,0.4-0.9,0.9-0.9c0.5,0,0.9,0.4,0.9,0.9
		C121.4,35.6,121,36,120.5,36z"/>
	<path class="st0" d="M0.3,0.9c0.1,0,14.9,3.8,51.2,8.8c0.6,0.1,1.2,0.2,1.7,0.2l0.1,0.1c0.1,0,7.3,1.5,10.5,4.8L64,15l0.3-0.2
		c0,0,4.7-2.5,10.1-2.7c2.3,0.2,4.5,0.3,6.7,0.5c-0.6,0.1-1.2,0.3-1.6,0.7c-0.2,0.2-0.4,0.3-0.6,0.5c-1.8,1.3-1.2,3.5-0.4,3.9
		c0.8,0.4,2-0.2,2-0.9c0-1.1-0.3-1.2-0.9-1.4c-0.4-0.1-0.3-0.5-0.2-0.7c0.2-0.3,0.4-0.5,0.6-0.7c1-0.7,2.8-0.8,5.1-0.3
		c2,0.4,5.9,3.4,9.1,5.8c1.3,1,2.5,1.9,3.5,2.6c3.6,2.5,7.2,3.3,7.3,3.3l0.5,0.1c4.7,1.1,10.1-0.5,14.3-3.2c0.3-0.2,0.5-0.4,0.8-0.6
		c0.3,0.2,0.5,0.4,0.8,0.6c4.2,2.7,9.6,4.3,14.3,3.2l0.5-0.1c0.1,0,3.7-0.8,7.3-3.3c1-0.7,2.2-1.6,3.5-2.6c3.1-2.4,7-5.4,9.1-5.8
		c2.3-0.5,4.1-0.4,5.1,0.3c0.3,0.2,0.5,0.4,0.6,0.7c0.1,0.2,0.2,0.5-0.2,0.7c-0.6,0.2-0.9,0.4-0.9,1.4c0,0.7,1.2,1.4,1.9,0.9
		c0.8-0.4,1.4-2.6-0.4-3.9c-0.2-0.2-0.4-0.4-0.6-0.5c-0.5-0.3-1-0.5-1.6-0.7c2.2-0.2,4.4-0.3,6.7-0.5c5.4,0.2,10,2.7,10.1,2.7
		l0.3,0.2l0.2-0.2c3.2-3.3,10.4-4.8,10.5-4.8l0.1-0.1c0.6-0.1,1.2-0.2,1.7-0.2c36.2-5,51-8.8,51.1-8.8c0.2,0,0.3-0.2,0.3-0.4l0-0.1
		c-0.1-0.2-0.3-0.4-0.5-0.3c-0.1,0-14.9,3.8-51.1,8.8c-7.6,1.1-15.4,1.9-22.9,2.5c-0.2,0-0.6,0-0.7,0.1c-21.3,1.7-39.1,1.8-39.3,1.8
		l-0.3,0l-0.1,0.2c0,0-2.2,4.4-5.6,7.2c-3.4-2.8-5.5-7.2-5.6-7.2l-0.1-0.2l-0.3,0c-0.2,0-18.1-0.1-39.3-1.8c-0.1,0-0.5-0.1-0.7-0.1
		C67,10.7,59.2,9.9,51.6,8.8C15.4,3.8,0.7,0.1,0.5,0C0.3,0,0.1,0.1,0,0.3l0,0.1C0,0.6,0.1,0.8,0.3,0.9z M182.4,10.6
		c-2,0.8-4.2,1.9-5.7,3.4c-0.8-0.4-3.1-1.5-6.1-2.1C174.5,11.4,178.4,11,182.4,10.6z M98,21.3c-1-0.7-2.2-1.6-3.4-2.5
		c-3.2-2.4-6.8-5.1-9-5.9c6.2,0.4,11.7,0.6,16.3,0.8l-0.1,0.1c-1.4,0.9-2.3,2.9-2.3,5c0,1.7,0.7,3.3,1.9,4.5
		C100.3,22.8,99.1,22.1,98,21.3z M146.3,18.8c-1.3,1-2.4,1.9-3.4,2.5c-1.2,0.8-2.3,1.4-3.3,1.9c1.2-1.2,1.9-2.7,1.9-4.5
		c0-2-0.9-4-2.3-5l-0.1-0.1c4.6-0.2,10.2-0.4,16.3-0.8C153,13.6,149.4,16.4,146.3,18.8z M126.6,14c0.7,0,2.9,0,6.1-0.1
		c-0.6,0.4-1.1,0.9-1.4,1.4c-0.7-0.1-1.8,0-2.4,1.6c-0.7,2.1-1.3,3.8-3,1.6c0,0,0,1.5,1.5,1.7c1.5,0.2,1.9-2,2.5-2.7
		c0.3-0.4,0.6-0.4,0.9-0.3c-0.1,1,0.2,2.1,0.7,2.8c0.6,0.9,1.4,1.4,2.4,1.5c1.2,0.1,1.9-0.1,2.3-0.5l0.1-0.2l0,0
		c0,0,1.2-1.2,0.5-2.7c-0.6-1.6-2.4-0.9-2.4,0.4c0,0,0.1,1.2,1.2,1.4l0.1,0.1c0,0.1-0.1,0.2-0.2,0.3c-0.3,0.2-0.8,0.3-1.7,0.3
		c-0.9-0.1-1.5-0.6-1.8-1.1c-0.6-0.9-0.7-2.3-0.3-3.5c0.3-0.9,1.1-1.6,2.3-1.9c1.5-0.5,3.2-0.3,4.3,0.4c1.1,0.8,1.9,2.5,1.9,4.2
		c0,1.9-0.9,3.5-2.5,4.6c-4.7,3.2-11.6,1.4-16.4-1.8c-0.2-0.1-0.4-0.3-0.6-0.4C124.1,18.6,126.1,14.9,126.6,14z M119.7,21.1
		c-0.2,0.1-0.4,0.3-0.6,0.4c-4.8,3.2-11.7,4.9-16.4,1.8c-1.6-1.1-2.5-2.7-2.5-4.6c0-1.7,0.8-3.5,1.9-4.2c1.1-0.7,2.8-0.9,4.3-0.4
		c1.1,0.4,2,1.1,2.3,1.9c0.4,1.2,0.3,2.6-0.3,3.5c-0.3,0.5-0.9,1-1.8,1.1c-0.9,0.1-1.4,0-1.7-0.3c-0.1-0.1-0.1-0.2-0.2-0.3l0.1-0.1
		c1.2-0.1,1.2-1.4,1.2-1.4c0-1.3-1.7-2-2.4-0.4c-0.6,1.6,0.5,2.7,0.5,2.7l0,0l0.1,0.2c0.5,0.4,1.2,0.6,2.3,0.5
		c1-0.1,1.9-0.6,2.4-1.5c0.5-0.8,0.8-1.8,0.7-2.8c0.3-0.1,0.6,0,0.9,0.3c0.6,0.7,0.9,3,2.5,2.7c1.5-0.2,1.5-1.7,1.5-1.7
		c-1.7,2.2-2.3,0.5-3-1.6c-0.5-1.6-1.7-1.7-2.4-1.6c-0.3-0.6-0.8-1.1-1.4-1.4c3.3,0.1,5.4,0.1,6.1,0.1
		C114.7,14.9,116.7,18.6,119.7,21.1z M70.3,11.8c-3,0.7-5.3,1.7-6.1,2.1c-1.5-1.5-3.7-2.6-5.7-3.4C62.4,11,66.4,11.4,70.3,11.8z"/>
	<path class="st0" d="M120.3,17.5c1.8-1.5,2.5-4.1,2.5-4.1h-4.4C118.3,14.9,120.3,17.5,120.3,17.5z"/>
	<path class="st0" d="M68.3,1.3c0.1,0,13.4,2.1,47.7,2.9l4.9,2.6l4.6-2.4c38.7,0.5,47.6-2.9,48-3.1c0.2-0.1,0.3-0.3,0.2-0.6
		c-0.1-0.2-0.3-0.3-0.6-0.2c-0.1,0-9,3.4-46.5,3l-5.7-2.4l-5.3,2.2c-33.9-0.8-47-2.9-47.2-2.9c-0.2,0-0.5,0.1-0.5,0.4
		C67.9,1,68,1.3,68.3,1.3z M120.7,2.4c0.7,0,1.3,0.6,1.3,1.3S121.4,5,120.7,5s-1.3-0.6-1.3-1.3S120,2.4,120.7,2.4z"/>
</g>
</svg>
