<?xml version="1.0" encoding="utf-8"?>
<!-- Generator: Adobe Illustrator 19.1.0, SVG Export Plug-In . SVG Version: 6.00 Build 0)  -->
<svg version="1.1" id="Layer_1" xmlns="http://www.w3.org/2000/svg" xmlns:xlink="http://www.w3.org/1999/xlink" x="0px" y="0px"
	 viewBox="0 0 240.8 40.1" style="enable-background:new 0 0 240.8 40.1;" xml:space="preserve">
<style type="text/css">
	.st0{fill:#ECECED;}
</style>
<g>
	<path class="st0" d="M107.6,12c0.8,0,1.4-0.5,1.7-1.1c4.9,0.6,8,3,8,3c0.1,0.1,0.4,0.3,0.7,0.5c-0.5,0.1-0.8,0.2-0.8,0.2
		c2.5,0.1,4.3,2.7,4.3,2.7s1.9-2.6,4.3-2.7c0,0-0.7-0.1-1.6-0.4c0.2-0.1,0.3-0.2,0.3-0.3c0,0,3.1-2.4,8-3c0.3,0.7,0.9,1.1,1.7,1.1
		c1,0,1.8-0.8,1.8-1.8c0-1-0.8-1.8-1.8-1.8c-1,0-1.7,0.7-1.8,1.7c-4.1,0.5-7.5,2.9-8.7,4c-1-0.4-2-1.2-2.3-2.5
		c-0.4,1.7-1.9,2.5-3,2.8c-0.9-0.8-4.5-3.7-9.1-4.3c-0.1-0.9-0.9-1.7-1.8-1.7c-1,0-1.8,0.8-1.8,1.8C105.7,11.2,106.6,12,107.6,12z
		 M134.3,9.2c0.5,0,1,0.4,1,1c0,0.5-0.4,1-1,1c-0.4,0-0.8-0.2-0.9-0.6l-0.1-0.4C133.4,9.6,133.8,9.2,134.3,9.2z M107.6,9.2
		c0.5,0,0.9,0.4,1,0.9l-0.1,0.4c-0.1,0.4-0.5,0.6-0.9,0.6c-0.5,0-1-0.4-1-1C106.6,9.7,107.1,9.2,107.6,9.2z"/>
	<path class="st0" d="M114.8,8.6c0.3,0,0.6-0.1,0.8-0.2l3.9,3.7c-0.3-0.3-2.3-3.2-3.3-4.3c0.2-0.3,0.3-0.6,0.3-0.9
		c0-1-0.8-1.7-1.7-1.7s-1.7,0.8-1.7,1.7C113.1,7.8,113.9,8.6,114.8,8.6z M114.8,6c0.5,0,0.9,0.4,0.9,0.9c0,0.5-0.4,0.9-0.9,0.9
		S114,7.3,114,6.8C114,6.4,114.4,6,114.8,6z"/>
	<path class="st0" d="M126.8,8.4c0.2,0.1,0.5,0.2,0.8,0.2c1,0,1.7-0.8,1.7-1.7c0-1-0.8-1.7-1.7-1.7c-1,0-1.7,0.8-1.7,1.7
		c0,0.3,0.1,0.7,0.3,0.9c-1,1.1-3,4-3.3,4.3L126.8,8.4z M127.6,6c0.5,0,0.9,0.4,0.9,0.9c0,0.5-0.4,0.9-0.9,0.9
		c-0.5,0-0.9-0.4-0.9-0.9C126.8,6.4,127.2,6,127.6,6z"/>
	<path class="st0" d="M120.8,7.2v3.2c0,0.2,0.2,0.4,0.4,0.4c0.2,0,0.4-0.2,0.4-0.4V7.2c0.7-0.2,1.2-0.9,1.2-1.6
		c0-0.8-0.6-1.5-1.3-1.7V1c0-0.2-0.2-0.4-0.4-0.4c-0.2,0-0.4,0.2-0.4,0.4v2.9c-0.7,0.2-1.3,0.9-1.3,1.7C119.4,6.4,120,7.1,120.8,7.2
		z M121.1,4.7c0.5,0,0.9,0.4,0.9,0.9c0,0.5-0.4,0.9-0.9,0.9c-0.5,0-0.9-0.4-0.9-0.9C120.3,5.1,120.6,4.7,121.1,4.7z"/>
	<path class="st0" d="M241.3,39.8c-0.1,0-14.9-3.8-51.2-8.8c-0.6-0.1-1.2-0.2-1.7-0.2l-0.1-0.1c-0.1,0-7.3-1.5-10.5-4.8l-0.2-0.2
		l-0.3,0.2c0,0-4.7,2.5-10.1,2.7c-2.3-0.2-4.5-0.3-6.7-0.5c0.6-0.1,1.2-0.3,1.6-0.7c0.2-0.2,0.4-0.3,0.6-0.5
		c1.8-1.3,1.2-3.5,0.4-3.9c-0.8-0.4-2,0.2-2,0.9c0,1.1,0.3,1.2,0.9,1.4c0.4,0.1,0.3,0.5,0.2,0.7c-0.2,0.3-0.4,0.5-0.6,0.7
		c-1,0.7-2.8,0.8-5.1,0.3c-2-0.4-5.9-3.4-9.1-5.8c-1.3-1-2.5-1.9-3.5-2.6c-3.6-2.5-7.2-3.3-7.3-3.3l-0.5-0.1
		c-4.7-1.1-10.1,0.5-14.3,3.2c-0.3,0.2-0.5,0.4-0.8,0.6c-0.3-0.2-0.5-0.4-0.8-0.6c-4.2-2.7-9.6-4.3-14.3-3.2l-0.5,0.1
		c-0.1,0-3.7,0.8-7.3,3.3c-1,0.7-2.2,1.6-3.5,2.6c-3.1,2.4-7,5.4-9.1,5.8c-2.3,0.5-4.1,0.4-5.1-0.3c-0.3-0.2-0.5-0.4-0.6-0.7
		c-0.1-0.2-0.2-0.5,0.2-0.7c0.6-0.2,0.9-0.4,0.9-1.4c0-0.7-1.2-1.4-1.9-0.9c-0.8,0.4-1.4,2.6,0.4,3.9c0.2,0.2,0.4,0.4,0.6,0.5
		c0.5,0.3,1,0.5,1.6,0.7c-2.2,0.2-4.4,0.3-6.7,0.5c-5.4-0.2-10-2.7-10.1-2.7l-0.3-0.2l-0.2,0.2c-3.2,3.3-10.4,4.8-10.5,4.8L54,30.7
		c-0.6,0.1-1.2,0.2-1.7,0.2c-36.2,5-51,8.8-51.1,8.8c-0.2,0-0.3,0.2-0.3,0.4l0,0.1c0.1,0.2,0.3,0.4,0.5,0.3c0.1,0,14.9-3.8,51.1-8.8
		c7.6-1.1,15.4-1.9,22.9-2.5c0.2,0,0.6,0,0.7-0.1c21.3-1.7,39.1-1.8,39.3-1.8l0.3,0l0.1-0.2c0,0,2.2-4.4,5.6-7.2
		c3.4,2.8,5.5,7.2,5.6,7.2l0.1,0.2l0.3,0c0.2,0,18.1,0.1,39.3,1.8c0.1,0,0.5,0.1,0.7,0.1c7.4,0.6,15.2,1.4,22.9,2.5
		c36.2,5,50.9,8.8,51.1,8.8c0.2,0.1,0.5-0.1,0.5-0.3l0-0.1C241.6,40,241.5,39.8,241.3,39.8z M59.2,30.1c2-0.8,4.2-1.9,5.7-3.4
		c0.8,0.4,3.1,1.5,6.1,2.1C67.1,29.2,63.2,29.6,59.2,30.1z M143.6,19.3c1,0.7,2.2,1.6,3.4,2.5c3.2,2.4,6.8,5.1,9,5.9
		c-6.2-0.4-11.7-0.6-16.3-0.8l0.1-0.1c1.4-0.9,2.3-2.9,2.3-5c0-1.7-0.7-3.3-1.9-4.5C141.3,17.9,142.5,18.5,143.6,19.3z M95.3,21.9
		c1.3-1,2.4-1.9,3.4-2.5c1.2-0.8,2.3-1.4,3.3-1.9c-1.2,1.2-1.9,2.7-1.9,4.5c0,2,0.9,4,2.3,5l0.1,0.1c-4.6,0.2-10.2,0.4-16.3,0.8
		C88.6,27,92.2,24.3,95.3,21.9z M115,26.7c-0.7,0-2.9,0-6.1,0.1c0.6-0.4,1.1-0.9,1.4-1.4c0.7,0.1,1.8,0,2.4-1.6
		c0.7-2.1,1.3-3.8,3-1.6c0,0,0-1.5-1.5-1.7c-1.5-0.2-1.9,2-2.5,2.7c-0.3,0.4-0.6,0.4-0.9,0.3c0.1-1-0.2-2.1-0.7-2.8
		c-0.6-0.9-1.4-1.4-2.4-1.5c-1.2-0.1-1.9,0.1-2.3,0.5l-0.1,0.2l0,0c0,0-1.2,1.2-0.5,2.7c0.6,1.6,2.4,0.9,2.4-0.4
		c0,0-0.1-1.2-1.2-1.4l-0.1-0.1c0-0.1,0.1-0.2,0.2-0.3c0.3-0.2,0.8-0.3,1.7-0.3c0.9,0.1,1.5,0.6,1.8,1.1c0.6,0.9,0.7,2.3,0.3,3.5
		c-0.3,0.9-1.1,1.6-2.3,1.9c-1.5,0.5-3.2,0.3-4.3-0.4c-1.1-0.8-1.9-2.5-1.9-4.2c0-1.9,0.9-3.5,2.5-4.6c4.7-3.2,11.6-1.4,16.4,1.8
		c0.2,0.1,0.4,0.3,0.6,0.4C117.5,22.1,115.5,25.7,115,26.7z M121.9,19.5c0.2-0.1,0.4-0.3,0.6-0.4c4.8-3.2,11.7-4.9,16.4-1.8
		c1.6,1.1,2.5,2.7,2.5,4.6c0,1.7-0.8,3.5-1.9,4.2c-1.1,0.7-2.8,0.9-4.3,0.4c-1.1-0.4-2-1.1-2.3-1.9c-0.4-1.2-0.3-2.6,0.3-3.5
		c0.3-0.5,0.9-1,1.8-1.1c0.9-0.1,1.4,0,1.7,0.3c0.1,0.1,0.1,0.2,0.2,0.3l-0.1,0.1c-1.2,0.1-1.2,1.4-1.2,1.4c0,1.3,1.7,2,2.4,0.4
		c0.6-1.6-0.5-2.7-0.5-2.7l0,0l-0.1-0.2c-0.5-0.4-1.2-0.6-2.3-0.5c-1,0.1-1.9,0.6-2.4,1.5c-0.5,0.8-0.8,1.8-0.7,2.8
		c-0.3,0.1-0.6,0-0.9-0.3c-0.6-0.7-0.9-3-2.5-2.7c-1.5,0.2-1.5,1.7-1.5,1.7c1.7-2.2,2.3-0.5,3,1.6c0.5,1.6,1.7,1.7,2.4,1.6
		c0.3,0.6,0.8,1.1,1.4,1.4c-3.3-0.1-5.4-0.1-6.1-0.1C126.9,25.7,124.9,22.1,121.9,19.5z M171.3,28.9c3-0.7,5.3-1.7,6.1-2.1
		c1.5,1.5,3.7,2.6,5.7,3.4C179.2,29.6,175.2,29.2,171.3,28.9z"/>
	<path class="st0" d="M121.3,23.2c-1.8,1.5-2.5,4.1-2.5,4.1h4.4C123.3,25.8,121.3,23.2,121.3,23.2z"/>
	<path class="st0" d="M173.3,39.4c-0.1,0-13.4-2.1-47.7-2.9l-4.9-2.6l-4.6,2.4c-38.8-0.5-47.6,2.9-48,3.1c-0.2,0.1-0.3,0.3-0.2,0.6
		c0.1,0.2,0.3,0.3,0.6,0.2c0.1,0,9-3.4,46.5-3l5.7,2.4l5.3-2.2c33.9,0.8,47,2.9,47.2,2.9c0.2,0,0.5-0.1,0.5-0.4
		C173.7,39.6,173.6,39.4,173.3,39.4z M120.9,38.2c-0.7,0-1.3-0.6-1.3-1.3c0-0.7,0.6-1.3,1.3-1.3c0.7,0,1.3,0.6,1.3,1.3
		C122.2,37.7,121.6,38.2,120.9,38.2z"/>
</g>
</svg>
