<?xml version="1.0" encoding="utf-8"?>
<!-- Generator: Adobe Illustrator 19.2.1, SVG Export Plug-In . SVG Version: 6.00 Build 0)  -->
<svg version="1.1" id="Layer_1" xmlns="http://www.w3.org/2000/svg" xmlns:xlink="http://www.w3.org/1999/xlink" x="0px" y="0px"
	 viewBox="0 0 12.6 28.5" style="enable-background:new 0 0 12.6 28.5;" xml:space="preserve">
<style type="text/css">
	.st0{fill:#F9BFAF;}
</style>
<path class="st0" d="M4.6,8l1.7-1.7L8,8L6.3,9.6L4.6,8z M6.3,22.2L8,20.6l-1.7-1.7l-1.7,1.7L6.3,22.2z M10.9,1.7l1.7,1.7V0L10.9,1.7
	z M10.9,14.3l1.7,1.7v-3.3L10.9,14.3z M10.9,26.9l1.7,1.7v-3.3L10.9,26.9z M0,0v3.3l1.7-1.7L0,0z M0,12.6v3.3l1.7-1.7L0,12.6z
	 M0,25.2v3.3l1.7-1.7L0,25.2z"/>
</svg>
