<?xml version="1.0" encoding="utf-8"?>
<!-- Generator: Adobe Illustrator 19.1.0, SVG Export Plug-In . SVG Version: 6.00 Build 0)  -->
<svg version="1.1" id="Layer_1" xmlns="http://www.w3.org/2000/svg" xmlns:xlink="http://www.w3.org/1999/xlink" x="0px" y="0px"
	 viewBox="0 0 200 56" style="enable-background:new 0 0 200 56;" xml:space="preserve">
<style type="text/css">
	.st0{fill:#7B7C7F;}
	.st1{fill:#C0C2BA;}
	.st2{fill:#ABBDC1;}
	.st3{fill:#ECECED;}
	.st4{fill:#ABADB0;}
	.st5{fill:#E9E9EA;}
	.st6{fill:#D3D1D3;}
	.st7{fill:#989498;}
	.st8{fill:#D4E0B3;}
	.st9{fill:#EFF7F7;}
	.st10{fill:#7CCFDC;}
	.st11{fill:#CEEBEF;}
	.st12{fill:#EEECE0;}
	.st13{fill:#D7D6CB;}
	.st14{fill:#E7C8B5;}
	.st15{fill:#718D84;}
	.st16{fill:#4D4D4F;}
	.st17{fill:#F7941E;}
</style>
<g>
	<path class="st0" d="M32.1,14c0,2.4-0.7,4.9-2,7.4c-1.4,2.5-3.2,4.8-5.6,6.8c-2.3,2-4.8,3.5-7.4,4.6c-2.6,1.1-5.1,1.7-7.3,1.7
		c-2.9,0-5.3-1-7.1-3S0,27,0,23.8C0,20.9,0.9,18,2.7,15S6.9,9.4,10,7.2c2.2-1.6,4.6-2.9,7.3-3.8s5.2-1.5,7.4-1.5
		c2.2,0,3.9,0.5,5.2,1.6c1.3,1.1,2,2.5,2,4.2c0,0.7-0.1,1.6-0.4,2.6C31.9,11.5,32.1,12.8,32.1,14z M31.5,7.7c0-1.6-0.6-2.9-1.7-3.8
		s-2.6-1.5-4.4-1.5c-3.6,0-7.3,1.2-11,3.6c-3.5,2.3-6.5,5.3-8.7,8.9c-2.4,3.8-3.6,7.5-3.6,11.1c0,2.3,0.7,4.2,2.1,5.7
		C5.5,33.3,7.3,34,9.5,34c4.4,0,8.9-2.3,13.3-6.8s6.9-9.3,7.4-14.3c-0.5,0.9-1.5,2.1-2.9,3.3c-1.4,1.3-2.3,1.9-2.8,1.9
		c-0.1,0-0.2-0.1-0.2-0.2c0-0.1,0.1-0.2,0.4-0.3c2.6-1.4,4.4-3.3,5.5-5.6c0-2-0.6-3.5-1.7-4.7s-2.7-1.7-4.7-1.7
		c-3.7,0-7.4,2-11.3,5.9s-5.8,7.7-5.8,11.4c0,1.5,0.3,2.7,1,3.6c0.7,0.9,1.6,1.4,2.7,1.4c0.5,0,1.1-0.2,1.6-0.5s0.8-0.6,0.8-0.9
		c0-0.1,0-0.1-0.1-0.1l-0.2,0.1c-0.2,0.2-0.5,0.3-0.9,0.3c-0.7,0-1.1-0.4-1.1-1.3c0-0.5,0.2-1,0.5-1.3c0.4-0.4,0.8-0.5,1.3-0.5
		c1,0,1.5,0.6,1.5,1.7c0,0.8-0.4,1.6-1.1,2.2c-0.7,0.6-1.6,0.9-2.5,0.9c-1.4,0-2.5-0.6-3.4-1.7s-1.4-2.5-1.4-4.2c0-3.8,2-7.7,6-11.5
		s8-5.7,12.1-5.7c1.7,0,3.3,0.4,4.6,1.2c1.4,0.8,2.3,1.9,2.8,3.2C31.4,9,31.5,8.4,31.5,7.7z"/>
	<path class="st0" d="M50,25.5c0,0.3-1.1,1.9-3.4,4.6c-1.9,2.2-3.4,3.4-4.4,3.4c-0.7,0-1.3-0.3-1.8-0.8c-0.5-0.6-0.7-1.2-0.7-2
		c0-0.7,0.1-1.4,0.4-2c0.3-0.6,1.1-1.8,2.3-3.6c1.3-1.9,1.9-3.1,1.9-3.6c0-0.6-0.3-1-1-1c-2.3,0-5.9,4.3-10.6,12.8
		c-0.8-0.1-1.2-0.1-1.4-0.1c-0.6,0-1.1,0-1.6,0.1l3.7-5.8c2.1-3.3,3.1-5.4,3.1-6.3c0-0.5-0.2-0.7-0.6-0.7c-0.8,0-2.4,1.7-4.8,5.1
		c-0.1,0.2-0.3,0.3-0.3,0.3c-0.1,0-0.1,0-0.1-0.1c0-0.1,0-0.1,0.1-0.2l0.5-0.6c2.4-3.2,4-4.9,4.9-4.9c0.5,0,1,0.2,1.4,0.7
		c0.4,0.5,0.6,1.1,0.6,1.8c0,1-0.6,2.4-1.8,4.2c1.9-2.6,3.3-4.3,4.3-5.3s1.9-1.4,2.8-1.4c0.7,0,1.3,0.3,1.8,0.9
		c0.5,0.6,0.7,1.3,0.7,2.1c0,1.1-0.7,2.7-2.2,4.9c-1.5,2.2-2.2,3.6-2.2,4.3c0,0.6,0.3,1,1,1c1.4,0,3.8-2.5,7.3-7.5
		c0.1-0.2,0.2-0.2,0.2-0.2C49.9,25.3,50,25.4,50,25.5z"/>
	<path class="st0" d="M62.4,8.7c-6.6,11-10.5,17.5-11.6,19.5c-1.1,1.9-1.6,3.2-1.6,3.9c0,0.7,0.3,1.1,0.9,1.1c1.3,0,3.8-2.5,7.3-7.5
		c0.1-0.2,0.2-0.2,0.3-0.2c0.1,0,0.1,0.1,0.1,0.1c0,0.1-0.1,0.2-0.2,0.4l-1,1.4c-3,4.1-5.2,6.2-6.6,6.2c-0.7,0-1.2-0.3-1.7-0.8
		c-0.4-0.5-0.7-1.2-0.7-2c0-0.9,0.2-1.7,0.6-2.5s1.8-3.2,4.1-7c2.9-4.7,5.3-8.9,7.2-12.4C59.9,8.9,60.4,9,60.7,9
		C61.3,9,61.9,8.9,62.4,8.7z"/>
	<path class="st0" d="M72.6,25.5c0,0.2-0.9,1.3-2.6,3.2c-1.9,2.1-4.4,4-7.5,5.7l-1.2,2.1c-2.3,4.1-4.7,7.2-7.2,9.2
		c-2.6,2.1-4.8,3.1-6.7,3.1c-0.6,0-1.2-0.2-1.6-0.6s-0.7-0.9-0.7-1.5c0-3.2,3.7-6.5,11-9.8c0.6-0.3,1.5-0.7,2.7-1.3l0.4-0.2l4.2-7.4
		c-1.6,2.3-2.8,3.7-3.6,4.4c-0.7,0.7-1.5,1.1-2.2,1.1c-0.6,0-1.2-0.3-1.7-0.8s-0.7-1.2-0.7-1.9c0-0.9,0.6-2.3,1.7-4.2l3.6-6.2
		c0.4,0.1,0.8,0.1,1.3,0.1c0.4,0,1-0.1,1.7-0.2l-4.7,7.6c-1.3,2.1-2,3.5-2,4.2c0,0.7,0.3,1.1,1,1.1c1.7,0,4.3-3,7.9-9.1l2.2-3.7
		c0.4,0.1,0.8,0.1,1.3,0.1c0.4,0,1-0.1,1.6-0.2c-2,3.1-4.6,7.7-8,13.7c1.9-1,3.6-2.1,4.9-3.2c1.3-1.2,2.8-2.8,4.5-4.9
		c0.2-0.3,0.4-0.4,0.4-0.4C72.6,25.4,72.6,25.4,72.6,25.5z M58.9,35.8c-0.3,0.1-1.1,0.6-2.7,1.3c-7.2,3.6-10.8,6.8-10.8,9.6
		c0,1.2,0.7,1.8,2,1.8c1.7,0,3.3-0.9,5-2.7s3.7-5,6.2-9.5L58.9,35.8z"/>
	<path class="st0" d="M89.9,20l-0.2,0.4h-3.1l-5.3,9c-0.6,1.1-1,2-1,2.6c0,0.7,0.4,1.1,1.1,1.1c1.4,0,3.9-2.5,7.3-7.5
		c0.1-0.2,0.2-0.2,0.3-0.2c0.1,0,0.1,0,0.1,0.1c0,0-0.1,0.2-0.2,0.4l-1,1.4c-3,4.1-5.2,6.2-6.7,6.2c-0.7,0-1.4-0.3-1.9-0.8
		s-0.7-1.2-0.7-2c0-0.9,0.4-2.1,1.3-3.5l4-6.7h-2.4l0.2-0.4h2.4l2.8-4.6c0.5,0.1,0.9,0.2,1.3,0.2c0.4,0,0.9-0.1,1.4-0.2L86.8,20
		H89.9z"/>
	<path class="st0" d="M104.3,25.4c0,0.1-0.1,0.3-0.2,0.4l-1,1.4c-3,4.1-5.2,6.2-6.6,6.2c-0.8,0-1.4-0.3-1.9-0.8
		c-0.5-0.5-0.7-1.2-0.7-2c0-1.1,0.6-2.5,1.8-4.3c1.9-2.8,2.8-4.4,2.8-4.9c0-0.6-0.3-0.9-1-0.9c-0.9,0-2.2,0.9-3.9,2.8
		c-1.6,1.8-3.7,5.2-6.5,10.1c-0.5-0.1-0.9-0.1-1.2-0.1c-0.3,0-0.8,0-1.4,0.1L88,27c0.5-0.9,1.2-2.2,2.2-4c0.5-0.9,2.1-3.6,4.8-8.1
		l3.6-6.1C99.1,8.9,99.5,9,99.8,9c0.6,0,1.2-0.1,1.8-0.2c-1.6,2.6-4.1,6.6-7.3,11.8c-0.1,0.2-1.3,2.2-3.7,6.1c3-4.4,5.3-6.6,7-6.6
		c0.7,0,1.3,0.3,1.7,0.9s0.7,1.3,0.7,2.1c0,1.1-0.7,2.7-2.1,4.7c-1.5,2.3-2.3,3.7-2.3,4.3c0,0.7,0.3,1,1,1c1.2,0,3.3-2,6.1-6l0.7-1
		l0.4-0.5C104,25.4,104.1,25.3,104.3,25.4C104.3,25.3,104.3,25.4,104.3,25.4z"/>
	<path class="st0" d="M116.3,25.5c0,0-0.1,0.3-0.4,0.6l-1,1.3c-3.3,4-6.1,6-8.4,6c-1.1,0-2-0.4-2.8-1.2c-0.7-0.8-1.1-1.8-1.1-3
		c0-2.8,2-5.3,5.9-7.5c2.1-1.1,3.8-1.7,5.1-1.7c0.6,0,1.1,0.2,1.5,0.5c0.4,0.3,0.6,0.8,0.6,1.2c0,1.1-0.7,2.1-2.2,2.9
		c-1.5,0.8-4,1.5-7.4,2.2c-1.1,1.6-1.6,3-1.6,4.1c0,1.4,0.7,2,2.2,2c2.5,0,5.6-2.4,9.2-7.3c0.2-0.3,0.3-0.4,0.5-0.4
		C116.3,25.4,116.3,25.4,116.3,25.5z M114.3,21.1c0-0.5-0.3-0.8-0.8-0.8c-0.8,0-1.9,0.6-3.3,1.7c-1.4,1.2-2.7,2.7-4,4.5
		c2.3-0.6,4.2-1.4,5.8-2.5C113.5,23.1,114.3,22.1,114.3,21.1z"/>
	<path class="st0" d="M179.3,8.3c0,0.8-0.1,1.7-0.3,2.7c-0.2,1-0.4,1.5-0.6,1.5c-0.2,0-0.2-0.1-0.2-0.2c0,0,0-0.1,0-0.2
		c0.4-1.1,0.6-2.3,0.6-3.6c0-2-0.6-3.6-1.8-4.8s-2.7-1.8-4.7-1.8c-2.6,0-5.3,0.9-8.1,2.6c2.2,1.6,3.3,3.6,3.3,5.8
		c0,3.5-2.4,5.6-7.2,6.3c3.9,1.4,5.9,3.9,5.9,7.5c0,2.7-1.2,5.1-3.5,7.1c-2.3,2-5,3.1-8.1,3.1c-1.5,0-2.7-0.4-3.5-1.1
		c-0.9-0.8-1.3-1.8-1.3-3.1c0-2,0.9-4,2.8-6c1.9-2,3.7-3,5.6-3c1,0,1.9,0.3,2.6,1c0.7,0.7,1,1.5,1,2.5c0,0.6-0.2,1.4-0.6,2.3
		c-0.4,0.9-0.7,1.4-0.9,1.4c-0.2,0-0.3-0.1-0.3-0.2c0-0.1,0-0.2,0.1-0.3c0.8-1.2,1.2-2.3,1.2-3.2c0-0.9-0.3-1.6-0.9-2.2
		c-0.6-0.6-1.3-0.8-2.3-0.8c-1.8,0-3.5,0.9-5.2,2.8c-1.7,1.9-2.6,3.8-2.6,5.8c0,1,0.4,1.9,1.1,2.6c0.7,0.7,1.6,1,2.6,1
		c2.4,0,4.6-1.2,6.6-3.5s3-4.9,3-7.7c0-2.6-1.3-4.5-3.8-5.8l-1.4,0.2c-0.4,0-0.8,0.1-1.1,0.1c-1.2,0-1.8-0.2-1.8-0.6
		c0-0.3,0.5-0.4,1.5-0.4c0.7,0,1.6,0.1,2.8,0.4c1.6-0.5,2.9-1.4,3.9-2.7s1.4-2.7,1.4-4.4c0-1.6-0.6-3-1.8-4.3
		c-3.5,2.7-6.7,7.1-9.7,13.5c-1.9,3.9-3.6,6.7-5.2,8.5c-1.5,1.7-3.7,3.2-6.5,4.6c-3.3,1.6-6.2,2.4-8.8,2.4c-2.1,0-3.9-0.5-5.3-1.5
		c-1.4-1-2.1-2.2-2.1-3.6c0-0.8,0.2-1.5,0.7-2.1c0.5-0.6,1.1-0.9,1.7-0.9c1,0,1.4,0.5,1.4,1.6c0,0.5-0.2,1-0.5,1.4s-0.7,0.6-1.2,0.6
		c-0.8,0-1.2-0.4-1.2-1.3c0-0.3,0-0.5-0.1-0.5c-0.3,0-0.4,0.4-0.4,1.3c0,1.3,0.6,2.4,1.9,3.3c1.3,0.9,2.9,1.3,4.9,1.3
		c3.5,0,6.6-1.3,9.4-3.8c1.2-1.1,2.3-2.3,3.2-3.5c0.9-1.2,3-4.3,6.2-9.2c1.6-2.4,3.4-4.7,5.6-7.2c2.2-2.4,4-4.2,5.5-5.2
		c-2.5-2.1-6.1-3.1-10.8-3.1c-6.7,0-12.4,2.4-17.4,7.2c-4,3.9-6.1,7.7-6.1,11.1c0,1.8,0.6,3.2,1.7,4.2c1.1,1,2.7,1.6,4.6,1.6
		c3.2,0,6.4-1.5,9.8-4.6s5.1-6,5.1-8.9c0-2.3-1.2-3.4-3.5-3.4s-4.9,1.3-7.6,3.9c-2.7,2.6-4,5.1-4,7.4c0,0.6,0.2,1.1,0.6,1.5
		c0.4,0.4,0.8,0.6,1.3,0.6c0.3,0,0.4,0.1,0.4,0.2c0,0.1-0.1,0.2-0.4,0.2c-0.8,0-1.4-0.3-1.9-1c-0.5-0.7-0.8-1.5-0.8-2.5
		c0-2.4,1.3-4.8,4-7.2c2.7-2.3,5.5-3.5,8.3-3.5c2.7,0,4.1,1.3,4.1,3.8c0,3.1-1.7,6.2-5.2,9.3s-6.9,4.7-10.2,4.7
		c-2.2,0-3.9-0.7-5.3-2c-1.3-1.3-2-3.1-2-5.3c0-4.5,2.5-8.5,7.6-12.2c5-3.7,10.6-5.5,16.7-5.5c4.6,0,8.5,1,11.7,3.1
		c2.9-1.8,5.7-2.7,8.4-2.7c2.1,0,3.8,0.6,5.1,1.9S179.3,6.2,179.3,8.3z"/>
	<path class="st0" d="M181.8,25.5c0,0-0.1,0.3-0.4,0.6l-1,1.3c-3.3,4-6.1,6-8.4,6c-1.1,0-2-0.4-2.8-1.2c-0.7-0.8-1.1-1.8-1.1-3
		c0-2.8,2-5.3,5.9-7.5c2.1-1.1,3.8-1.7,5.1-1.7c0.6,0,1.1,0.2,1.5,0.5c0.4,0.3,0.6,0.8,0.6,1.2c0,1.1-0.7,2.1-2.2,2.9
		s-4,1.5-7.4,2.2c-1.1,1.6-1.6,3-1.6,4.1c0,1.4,0.7,2,2.2,2c2.5,0,5.6-2.4,9.2-7.3c0.2-0.3,0.3-0.4,0.5-0.4
		C181.8,25.4,181.8,25.4,181.8,25.5z M179.8,21.1c0-0.5-0.3-0.8-0.8-0.8c-0.8,0-1.9,0.6-3.3,1.7c-1.4,1.2-2.7,2.7-4,4.5
		c2.3-0.6,4.2-1.4,5.8-2.5C179.1,23.1,179.8,22.1,179.8,21.1z"/>
	<path class="st0" d="M189.8,16.3c0,0.6-1,1.9-3,3.8c-0.1,0.5-0.1,0.9-0.1,1.3c0,0.9,0.4,2.4,1.3,4.4c0.4,1,0.6,1.8,0.6,2.5
		c0,1.4-0.7,2.7-2.1,3.7c-1.4,1-3,1.6-4.9,1.6c-1.1,0-1.9-0.3-2.6-0.9c-0.6-0.6-1-1.4-1-2.4c0-1.2,0.4-2.3,1.3-3.5
		c0.8-1.1,1.7-1.7,2.6-1.7c0.2,0,0.3,0,0.4,0.1l1.9-2.3c0.6-0.7,1.3-1.6,2.3-2.8c0.3-1.1,0.7-2.1,1.2-2.8c0.6-0.8,1.1-1.2,1.6-1.2
		C189.7,15.9,189.8,16,189.8,16.3z M186.5,25.6c0-0.5,0-0.9,0-1.4c0-0.5,0-1.1,0-2c0-0.7,0-1.3,0.1-1.8c-0.9,1.1-2.2,2.7-3.8,4.7
		c0.3,0.3,0.4,0.6,0.4,0.9c0,0.9-0.8,1.6-2.3,1.9c-0.6,0.1-1.1,0.5-1.6,1c-0.4,0.5-0.7,1.1-0.7,1.7c0,0.6,0.2,1.2,0.7,1.6
		s1,0.6,1.7,0.6c1.3,0,2.6-0.8,3.8-2.3S186.5,27.4,186.5,25.6z"/>
	<path class="st0" d="M200,20l-0.2,0.4h-3.1l-5.3,9c-0.6,1.1-1,2-1,2.6c0,0.7,0.4,1.1,1.1,1.1c1.4,0,3.9-2.5,7.3-7.5
		c0.1-0.2,0.2-0.2,0.3-0.2c0.1,0,0.1,0,0.1,0.1c0,0-0.1,0.2-0.2,0.4l-1,1.4c-3,4.1-5.2,6.2-6.7,6.2c-0.7,0-1.4-0.3-1.9-0.8
		c-0.5-0.5-0.7-1.2-0.7-2c0-0.9,0.4-2.1,1.3-3.5l4-6.7h-2.4l0.2-0.4h2.4l2.8-4.6c0.5,0.1,0.9,0.2,1.3,0.2c0.4,0,0.9-0.1,1.4-0.2
		l-2.7,4.6H200z"/>
	<path class="st0" d="M68.7,53.7c-0.4,0-0.8,0-1.4,0.1c-0.6,0-1,0.1-1.5,0.1c-0.4,0-0.6-0.1-0.6-0.2c0-0.2,0.2-0.3,0.7-0.4
		c0.6-0.1,1-0.3,1.3-0.5c0.3-0.3,0.4-0.6,0.4-1.1v-9.9c0-0.5-0.1-0.9-0.3-1.2c-0.2-0.3-0.6-0.4-1.1-0.4c-0.5,0-0.7-0.2-0.7-0.4
		c0-0.2,0.2-0.2,0.6-0.2c0.4,0,0.8,0,1.3,0s0.8,0,1,0c0.2,0,0.6,0,1-0.1c0.5,0,0.9-0.1,1.4-0.1c1.7,0,2.9,0.3,3.7,0.8
		c0.8,0.5,1.2,1.3,1.2,2.5c0,0.9-0.3,1.6-0.8,2.1c-0.4,0.4-0.9,0.7-1.5,0.9c-0.1,0-0.1,0.1-0.1,0.1s0,0.1,0.1,0.1
		c0.4,0.1,0.8,0.3,1.1,0.4c0.3,0.1,0.6,0.3,1,0.6c0.4,0.3,0.6,0.6,0.8,1.1c0.2,0.4,0.3,1,0.3,1.6c0,0.6-0.1,1.1-0.2,1.5
		c-0.1,0.4-0.3,0.8-0.6,1.1c-0.3,0.3-0.5,0.5-0.7,0.6c-0.2,0.1-0.4,0.3-0.8,0.4c-1,0.5-2.2,0.8-3.5,0.8c-0.1,0-0.4,0-0.9,0
		C69.4,53.7,69,53.7,68.7,53.7z M70.4,45.5c0.9,0,1.7-0.2,2.4-0.6c0.2-0.1,0.5-0.4,0.7-0.7c0.2-0.4,0.3-0.8,0.3-1.4
		c0-0.8-0.2-1.5-0.7-2.1c-0.4-0.6-1.2-0.9-2.3-0.9c-0.6,0-1,0.1-1.2,0.2c-0.2,0.2-0.3,0.4-0.3,0.8v3.8
		C69.4,45.2,69.7,45.5,70.4,45.5z M71.1,52.9c0.9,0,1.7-0.3,2.4-1c0.7-0.7,1.1-1.4,1.1-2.4c0-1.3-0.5-2.2-1.6-2.8
		c-0.7-0.4-1.4-0.6-2.3-0.6c-0.4,0-0.7,0.1-0.9,0.3c-0.2,0.2-0.3,0.3-0.3,0.5v4.4c0,0.6,0.1,1,0.4,1.2
		C70.1,52.7,70.5,52.9,71.1,52.9z"/>
	<path class="st0" d="M81,47.8v4.3c0,0.4,0.4,0.7,1.2,0.9c0.3,0.1,0.5,0.3,0.5,0.4c0,0.1-0.1,0.2-0.4,0.2c-0.3,0-0.6,0-1-0.1
		c-0.4,0-0.7-0.1-0.9-0.1s-0.5,0-0.8,0.1c-0.3,0-0.6,0.1-0.9,0.1c-0.3,0-0.4-0.1-0.4-0.2c0-0.1,0.2-0.3,0.5-0.4
		c0.2-0.1,0.3-0.1,0.4-0.1c0.1,0,0.2-0.1,0.3-0.2c0.1-0.1,0.1-0.3,0.1-0.5v-4.7c0-0.9-0.3-1.5-0.9-1.6c-0.1,0-0.2-0.1-0.2-0.3
		c0-0.1,0.1-0.2,0.2-0.3c0.3-0.1,0.5-0.1,0.8-0.3c0.3-0.1,0.5-0.2,0.6-0.3c0.1-0.1,0.3-0.2,0.6-0.4c0.2-0.1,0.4-0.2,0.5-0.3
		c0,0,0,0,0,0c0,0,0,0,0,0c0.1,0,0.1,0.1,0.1,0.2c0,0.4,0,0.9-0.1,1.7c0,0,0,0,0,0c0,0,0.1,0,0.1-0.1c0.1-0.1,0.1-0.2,0.2-0.3
		c0.1-0.1,0.1-0.2,0.2-0.2c0.7-0.6,1.4-0.9,2-0.9c0.3,0,0.6,0.1,0.8,0.2c0.2,0.1,0.3,0.3,0.3,0.5c0,0.2-0.1,0.5-0.3,0.8
		c-0.2,0.3-0.4,0.4-0.6,0.4c-0.1,0-0.3-0.1-0.6-0.2C83,46.1,82.7,46,82.6,46c-0.4,0-0.8,0.1-1.1,0.4C81.2,46.7,81,47.2,81,47.8z"/>
	<path class="st0" d="M88.5,44.1c0.1,0,0.2,0,0.2,0.1c-0.1,1.4-0.2,2.3-0.2,3v5.1c0,0.1,0,0.3,0.1,0.4c0,0.1,0.1,0.2,0.3,0.2
		C88.9,53,89,53,89,53c0,0,0.2,0.1,0.4,0.1c0.3,0.1,0.5,0.3,0.5,0.4c0,0.1-0.1,0.2-0.4,0.2c-0.3,0-0.6,0-0.9-0.1
		c-0.3,0-0.6-0.1-0.9-0.1c-0.3,0-0.5,0-0.9,0.1c-0.3,0-0.6,0.1-0.9,0.1c-0.3,0-0.4-0.1-0.4-0.2c0-0.1,0.2-0.3,0.5-0.4
		c0.5-0.1,0.8-0.3,0.9-0.5c0-0.1,0.1-0.2,0.1-0.4v-4.8c0-0.9-0.3-1.5-1-1.6c-0.1,0-0.2-0.1-0.2-0.3c0-0.1,0.1-0.2,0.2-0.3
		c0.4-0.1,0.8-0.3,1.3-0.5c0.4-0.2,0.7-0.4,1-0.6S88.4,44.1,88.5,44.1z M86.3,41.2c0-0.3,0.1-0.6,0.3-0.8c0.2-0.2,0.5-0.3,0.8-0.3
		c0.3,0,0.6,0.1,0.8,0.3c0.2,0.2,0.3,0.5,0.3,0.8c0,0.3-0.1,0.6-0.3,0.8c-0.2,0.2-0.5,0.3-0.8,0.3c-0.3,0-0.6-0.1-0.8-0.3
		C86.4,41.8,86.3,41.5,86.3,41.2z"/>
	<path class="st0" d="M97.7,45c0.1,0.1,0.2,0.2,0.2,0.2c0.1,0,0.1-0.2,0.1-0.5v-3.5c0-0.6-0.1-0.9-0.3-1.2c-0.2-0.2-0.5-0.4-0.9-0.5
		c-0.1,0-0.2-0.1-0.2-0.3c0-0.2,0.1-0.2,0.2-0.3c0.5-0.1,0.9-0.2,1.3-0.4c0.4-0.2,0.7-0.3,0.9-0.4c0.2-0.1,0.4-0.1,0.4-0.1
		c0.1,0,0.1,0,0.2,0.1c0,0,0,0.2,0,0.4c0,0.2,0,0.6-0.1,1c0,0.5,0,1,0,1.6v10c0,1,0.2,1.4,0.5,1.4c0.5,0,0.8,0,1-0.1
		c0.2,0,0.3,0.1,0.3,0.3c0,0.2-0.1,0.3-0.3,0.3c-0.8,0.1-1.6,0.4-2.6,0.8c-0.2,0.1-0.4,0.1-0.5,0.1c0,0-0.1,0-0.1-0.1
		c0-0.1,0-0.3,0.1-0.7c0-0.4,0.1-0.6,0.1-0.8v-0.1c-0.3,0.4-0.6,0.8-1.1,1.1c-0.5,0.3-1.1,0.5-1.7,0.5c-1.2,0-2.2-0.5-2.9-1.4
		c-0.8-0.9-1.1-2-1.1-3.1c0-1.3,0.5-2.5,1.4-3.5c0.9-1,2.1-1.5,3.6-1.5c0.3,0,0.6,0.1,1,0.2C97.4,44.8,97.7,44.9,97.7,45z
		 M95.3,45.3c-0.3,0-0.5,0.1-0.8,0.2c-0.3,0.1-0.6,0.3-0.8,0.5c-0.3,0.3-0.5,0.6-0.7,1.1c-0.2,0.5-0.3,1.1-0.3,1.8
		c0,0.8,0.1,1.5,0.4,2c0.2,0.6,0.5,1,0.9,1.2c0.4,0.3,0.7,0.5,1,0.6c0.3,0.1,0.6,0.2,0.9,0.2c0.6,0,1.1-0.2,1.5-0.6
		c0.4-0.4,0.6-0.8,0.6-1.4v-3c0-0.7-0.3-1.3-0.7-1.9C96.8,45.6,96.1,45.3,95.3,45.3z"/>
	<path class="st0" d="M109,53c0.4,0,0.7-0.1,0.9-0.3c0.1-0.1,0.1-0.1,0.2,0c0.1,0.1,0.1,0.1,0.1,0.2c0,0.1-0.2,0.4-0.6,0.7
		c-0.4,0.3-0.8,0.5-1.2,0.5c-0.4,0-0.7-0.1-0.9-0.3c-0.2-0.2-0.4-0.4-0.5-0.6c-0.1-0.2-0.2-0.3-0.2-0.3c-0.1,0-0.2,0.1-0.4,0.3
		c-0.2,0.2-0.5,0.4-0.9,0.6c-0.4,0.2-0.9,0.3-1.4,0.3c-0.5,0-0.9-0.2-1.3-0.6c-0.4-0.4-0.6-0.8-0.6-1.2c0-0.9,0.5-1.5,1.6-2l2.2-0.9
		c0.3-0.1,0.4-0.2,0.5-0.3s0.1-0.3,0.1-0.6l0-1.4c0-0.4-0.1-0.7-0.4-1c-0.3-0.3-0.6-0.4-0.9-0.4c-0.3,0-0.5,0.1-0.8,0.2
		c-0.3,0.2-0.5,0.3-0.6,0.5c-0.1,0.1-0.1,0.2-0.1,0.4c0,0,0,0.1,0,0.2c0,0.1,0,0.1,0,0.2c0,0.1-0.2,0.3-0.6,0.5
		c-0.4,0.2-0.7,0.3-0.9,0.3c-0.1,0-0.2-0.1-0.2-0.2c0-0.5,0.3-1,0.9-1.5c0.4-0.4,0.9-0.7,1.6-1.1c0.6-0.3,1.2-0.5,1.7-0.5
		c0.5,0,0.9,0.2,1.3,0.6c0.4,0.4,0.5,0.8,0.5,1.4l-0.1,4.8C108.2,52.4,108.5,53,109,53z M104,51.7c0,0.4,0.1,0.7,0.4,0.9
		s0.5,0.3,0.7,0.3c0.4,0,0.9-0.2,1.3-0.6c0.2-0.1,0.2-0.4,0.3-0.9l0-1.1c0-0.3-0.1-0.5-0.2-0.5c-0.1,0-0.2,0-0.3,0.1
		C104.7,50.5,104,51.1,104,51.7z"/>
	<path class="st0" d="M113.7,52.3c0,0.1,0,0.3,0.1,0.4c0,0.1,0.1,0.2,0.3,0.2c0.1,0.1,0.2,0.1,0.3,0.1c0,0,0.2,0.1,0.4,0.1
		c0.3,0.1,0.5,0.3,0.5,0.4c0,0.1-0.1,0.2-0.4,0.2c-0.3,0-0.6,0-0.9-0.1c-0.3,0-0.6-0.1-0.9-0.1c-0.3,0-0.5,0-0.9,0.1
		c-0.3,0-0.6,0.1-0.9,0.1c-0.3,0-0.4-0.1-0.4-0.2c0-0.1,0.2-0.3,0.5-0.4c0.5-0.1,0.8-0.3,0.9-0.5c0-0.1,0.1-0.2,0.1-0.4V41.2
		c0-0.9-0.3-1.5-1-1.6c-0.1,0-0.2-0.1-0.2-0.3c0-0.1,0.1-0.2,0.2-0.3c0.4-0.1,1.2-0.4,2.6-0.9h0l0,0c0.1,0,0.1,0.1,0.1,0.2
		c0,0,0,0.2,0,0.4c0,0.2-0.1,0.6-0.1,1c0,0.5,0,1,0,1.6V52.3z"/>
	<path class="st0" d="M132.9,50.6c0-0.1,0.1-0.1,0.2-0.2s0.2-0.1,0.2-0.1c0.1,0,0.1-0.1,0.1-0.1c0,0,0,0,0,0c0.1,0,0.2,0.1,0.2,0.4
		c0,0,0,0.1,0,0.1c0,0,0,0.1,0,0.1c-0.2,1-0.4,1.8-0.7,2.3c-0.1,0.1-0.4,0.3-1.1,0.5c-0.9,0.3-2.2,0.4-3.7,0.4c-2,0-3.7-0.7-5.1-2.2
		c-1.4-1.5-2.1-3.2-2.1-5.2c0-2.1,0.8-3.9,2.4-5.3c1.6-1.4,3.5-2.2,5.6-2.2c1,0,1.8,0.1,2.3,0.3c0.5,0.2,1.1,0.3,1.7,0.4
		c0.2,0,0.3,0.2,0.3,0.7c0.1,0.8,0.2,1.6,0.2,2.4c0,0.1,0,0.2,0,0.4c0,0.1-0.1,0.2-0.2,0.2c-0.3,0-0.5-0.3-0.6-0.8
		c-0.1-0.7-0.3-1.2-0.8-1.6c-0.7-0.8-1.8-1.1-3.2-1.1c-1.6,0-2.9,0.6-3.9,1.9s-1.6,2.7-1.6,4.4c0,1.2,0.2,2.4,0.7,3.5
		c0.4,1.1,1.1,2,2,2.7s1.9,1.1,3,1.1C130.6,53.3,132,52.4,132.9,50.6z"/>
	<path class="st0" d="M139.7,44.5c1.3,0,2.3,0.4,3.2,1.3c0.9,0.9,1.3,1.9,1.3,3.1c0,1.4-0.4,2.6-1.3,3.5c-0.9,1-2.1,1.5-3.7,1.5
		c-1.2,0-2.3-0.4-3.1-1.3c-0.8-0.8-1.3-1.9-1.3-3.2c0-1.3,0.5-2.4,1.4-3.5C137.2,45.1,138.3,44.5,139.7,44.5z M139.3,45.2
		c-0.8,0-1.5,0.3-1.9,0.9c-0.5,0.6-0.7,1.6-0.7,2.9c0,1.1,0.3,2.1,0.9,3c0.6,0.9,1.3,1.3,2.2,1.3c1.1,0,1.9-0.4,2.3-1.2
		c0.3-0.6,0.4-1.4,0.4-2.6c0-1.1-0.3-2.1-0.9-3S140.2,45.2,139.3,45.2z"/>
	<path class="st0" d="M154.5,44.5L154.5,44.5c0.1,0,0.2,0,0.3,0.1c0.1,0.1,0.1,0.2,0,0.3c-0.1,0.2-0.2,0.7-0.2,1.6v4.7
		c0,1,0.1,1.5,0.4,1.5c0.5,0,0.8,0,1-0.1c0.2,0,0.3,0.1,0.3,0.3c0,0.2-0.1,0.3-0.3,0.3c-0.8,0.1-1.6,0.4-2.6,0.8
		c-0.2,0.1-0.4,0.1-0.5,0.1c0,0-0.1,0-0.1-0.1c0-0.1,0-0.3,0.1-0.7c0-0.4,0.1-0.6,0.1-0.8v-0.1c-1.1,1-2.3,1.6-3.6,1.6
		c-0.7,0-1.4-0.2-1.8-0.7c-0.5-0.5-0.7-1.1-0.7-1.9v-4.5c0-0.6-0.3-1-0.9-1.3c-0.2-0.1-0.3-0.2-0.3-0.3c0-0.2,0.1-0.3,0.3-0.4
		c0.5,0,1.3-0.1,2.3-0.4c0.1,0,0.2,0,0.2,0.1c0.1,0.1,0.1,0.1,0.1,0.2c-0.1,0.7-0.1,1.2-0.1,1.7v4.3c0,0.5,0.2,1,0.6,1.4
		c0.4,0.4,0.8,0.6,1.3,0.6c0.9,0,1.5-0.1,1.9-0.4c0.7-0.5,1-1,1-1.7v-4c0-0.4-0.2-0.7-0.5-0.8c-0.3-0.2-0.6-0.3-1-0.3
		c-0.3,0-0.5-0.1-0.5-0.4c0-0.1,0.1-0.2,0.2-0.3c0.1-0.1,0.2-0.1,0.3-0.1c0.4,0,0.8,0,1.1-0.1c0.3,0,0.5,0,0.7-0.1
		c0.2,0,0.3,0,0.4-0.1c0.1,0,0.2,0,0.3-0.1C154.3,44.6,154.4,44.5,154.5,44.5z"/>
	<path class="st0" d="M160.8,54c-0.7,0-1.3-0.2-1.7-0.7c-0.4-0.4-0.6-1.1-0.6-2v-5.1c0-0.1-0.1-0.2-0.2-0.3s-0.3-0.1-0.7-0.1
		c0,0-0.1-0.1-0.2-0.2c-0.1-0.1-0.1-0.2-0.1-0.3c0-0.1,0-0.1,0.1-0.2c0.3-0.1,0.7-0.3,1-0.6c0.4-0.3,0.7-0.6,0.9-0.9
		c0.2-0.3,0.4-0.4,0.4-0.4c0.3,0,0.4,0.1,0.4,0.2l-0.2,1c0,0.1,0,0.2,0.1,0.2c0.1,0.1,0.2,0.1,0.4,0.1h2.5c0.1,0,0.2,0.2,0.2,0.5
		c0,0.4-0.1,0.5-0.2,0.5h-2.2c-0.4,0-0.6,0-0.7,0.1c-0.1,0.1-0.1,0.2-0.1,0.5v4.2c0,0.7,0.1,1.3,0.4,1.6c0.3,0.3,0.6,0.5,1,0.5
		c0.7,0,1.3-0.1,1.7-0.4c0.1,0,0.1,0,0.2,0c0,0.1,0.1,0.2,0.1,0.3c0,0.1-0.1,0.2-0.4,0.5c-0.2,0.2-0.6,0.4-1,0.6
		C161.6,53.9,161.2,54,160.8,54z"/>
	<path class="st0" d="M173.1,44.5L173.1,44.5c0.1,0,0.2,0,0.3,0.1c0.1,0.1,0.1,0.2,0,0.3c-0.1,0.2-0.2,0.7-0.2,1.6v4.7
		c0,1,0.1,1.5,0.4,1.5c0.5,0,0.8,0,1-0.1c0.2,0,0.3,0.1,0.3,0.3c0,0.2-0.1,0.3-0.3,0.3c-0.8,0.1-1.6,0.4-2.6,0.8
		c-0.2,0.1-0.4,0.1-0.5,0.1c0,0-0.1,0-0.1-0.1c0-0.1,0-0.3,0.1-0.7c0-0.4,0.1-0.6,0.1-0.8v-0.1c-1.1,1-2.3,1.6-3.6,1.6
		c-0.7,0-1.4-0.2-1.8-0.7c-0.5-0.5-0.7-1.1-0.7-1.9v-4.5c0-0.6-0.3-1-0.9-1.3c-0.2-0.1-0.3-0.2-0.3-0.3c0-0.2,0.1-0.3,0.3-0.4
		c0.5,0,1.3-0.1,2.3-0.4c0.1,0,0.2,0,0.2,0.1c0.1,0.1,0.1,0.1,0.1,0.2c-0.1,0.7-0.1,1.2-0.1,1.7v4.3c0,0.5,0.2,1,0.6,1.4
		s0.8,0.6,1.3,0.6c0.9,0,1.5-0.1,1.9-0.4c0.7-0.5,1-1,1-1.7v-4c0-0.4-0.2-0.7-0.5-0.8c-0.3-0.2-0.6-0.3-1-0.3
		c-0.3,0-0.5-0.1-0.5-0.4c0-0.1,0.1-0.2,0.2-0.3c0.1-0.1,0.2-0.1,0.3-0.1c0.4,0,0.8,0,1.1-0.1c0.3,0,0.5,0,0.7-0.1
		c0.2,0,0.3,0,0.4-0.1c0.1,0,0.2,0,0.3-0.1C172.9,44.6,173,44.5,173.1,44.5z"/>
	<path class="st0" d="M178.7,47.8v4.3c0,0.4,0.4,0.7,1.2,0.9c0.3,0.1,0.5,0.3,0.5,0.4c0,0.1-0.1,0.2-0.4,0.2c-0.3,0-0.6,0-1-0.1
		c-0.4,0-0.7-0.1-0.9-0.1c-0.3,0-0.5,0-0.8,0.1c-0.3,0-0.6,0.1-0.9,0.1c-0.3,0-0.4-0.1-0.4-0.2c0-0.1,0.2-0.3,0.5-0.4
		c0.2-0.1,0.3-0.1,0.4-0.1c0.1,0,0.2-0.1,0.3-0.2c0.1-0.1,0.1-0.3,0.1-0.5v-4.7c0-0.9-0.3-1.5-0.9-1.6c-0.1,0-0.2-0.1-0.2-0.3
		c0-0.1,0.1-0.2,0.2-0.3c0.3-0.1,0.5-0.1,0.8-0.3c0.3-0.1,0.5-0.2,0.6-0.3c0.1-0.1,0.3-0.2,0.6-0.4c0.2-0.1,0.4-0.2,0.5-0.3
		c0,0,0,0,0,0c0,0,0,0,0,0c0.1,0,0.1,0.1,0.1,0.2c0,0.4,0,0.9-0.1,1.7c0,0,0,0,0,0c0,0,0.1,0,0.1-0.1c0.1-0.1,0.1-0.2,0.2-0.3
		c0.1-0.1,0.1-0.2,0.2-0.2c0.7-0.6,1.4-0.9,2-0.9c0.3,0,0.6,0.1,0.8,0.2c0.2,0.1,0.3,0.3,0.3,0.5c0,0.2-0.1,0.5-0.3,0.8
		c-0.2,0.3-0.4,0.4-0.6,0.4c-0.1,0-0.3-0.1-0.6-0.2c-0.3-0.1-0.5-0.2-0.7-0.2c-0.4,0-0.8,0.1-1.1,0.4
		C178.8,46.7,178.7,47.2,178.7,47.8z"/>
	<path class="st0" d="M187.6,44.5c0.9,0,1.6,0.2,2.1,0.6c0.5,0.4,0.8,1,0.8,1.8c0,0.7-0.3,1-0.8,1h-4.6c-0.2,0-0.3,0-0.4,0.1
		c-0.1,0.1-0.1,0.3-0.1,0.7c0,1,0.3,1.9,0.9,2.7c0.6,0.8,1.4,1.1,2.4,1.1c0.3,0,0.7-0.1,1.1-0.2c0.4-0.2,0.7-0.4,1-0.7
		c0.1-0.1,0.2-0.2,0.2-0.2c0.2,0,0.2,0.1,0.1,0.4c-0.1,0.5-0.5,0.9-1.1,1.4c-0.6,0.4-1.4,0.7-2.3,0.7c-1,0-1.9-0.4-2.6-1.3
		s-1.1-2-1.1-3.5c0-1.3,0.4-2.4,1.3-3.3C185.3,45,186.3,44.5,187.6,44.5z M187.2,45.2c-0.6,0-1.1,0.2-1.6,0.6
		c-0.5,0.4-0.7,0.8-0.7,1.1c0,0.2,0.1,0.3,0.4,0.3h1.8c0.7,0,1.2,0,1.6-0.1c0.1,0,0.2-0.2,0.2-0.6c0-0.4-0.2-0.7-0.6-1
		S187.7,45.2,187.2,45.2z"/>
</g>
</svg>
